<svg width="253" height="63" viewBox="0 0 253 63" fill="none" xmlns="http://www.w3.org/2000/svg">
<path d="M66.0304 16.9564C66.0269 20.7948 64.7145 24.5187 62.3074 27.5207C59.9003 30.5226 56.5404 32.6255 52.776 33.4863V24.3415C54.1408 23.6422 55.2857 22.5833 56.0854 21.2808C56.8852 19.9783 57.3089 18.4823 57.3104 16.9564C57.3115 15.8673 57.0964 14.7886 56.6774 13.7821C56.2584 12.7757 55.6438 11.8612 54.8688 11.0911C54.0937 10.3209 53.1734 9.71019 52.1606 9.29388C51.1477 8.87756 50.0622 8.66381 48.9661 8.66486H25.516V25.3013H40.5412V15.5701H49.2612V54.9484C49.2612 56.0797 48.8089 57.1647 48.0038 57.9647C47.1988 58.7647 46.1068 59.2141 44.9683 59.2141H17.0643C12.5392 59.212 8.20011 57.4249 5.00038 54.2454C1.80066 51.0659 0.00213297 46.7542 0 42.2577C0.00353262 38.4194 1.3159 34.6955 3.72302 31.6935C6.13015 28.6915 9.48996 26.5886 13.2544 25.7279V34.8726C11.8896 35.572 10.7447 36.6308 9.945 37.9334C9.14525 39.2359 8.72146 40.7319 8.71998 42.2577C8.71893 43.3469 8.93404 44.4256 9.353 45.432C9.77197 46.4385 10.3866 47.353 11.1616 48.1231C11.9367 48.8933 12.857 49.504 13.8698 49.9203C14.8827 50.3366 15.9682 50.5504 17.0643 50.5493H40.5144V33.9128H25.4892V43.6441H16.7692V4.26579C16.7692 3.13444 17.2215 2.04943 18.0266 1.24944C18.8316 0.449457 19.9236 3.01723e-05 21.0621 3.01723e-05H48.9124C51.157 -0.00417469 53.3805 0.431158 55.4558 1.28115C57.5311 2.13115 59.4174 3.37914 61.0071 4.95383C62.5968 6.52852 63.8587 8.39903 64.7206 10.4585C65.5825 12.5179 66.0276 14.726 66.0304 16.9564ZM132.41 12.7973C132.41 15.6767 130.209 17.8096 127.151 17.8096C124.092 17.8096 121.946 15.6767 121.946 12.7973C121.946 11.4185 122.497 10.0961 123.478 9.12114C124.459 8.14616 125.79 7.59842 127.178 7.59842C128.565 7.59842 129.896 8.14616 130.877 9.12114C131.858 10.0961 132.41 11.4185 132.41 12.7973ZM252.531 20.9289L232.247 63H222.427L228.276 50.8959L213.814 20.9289H223.634L233.186 40.7114L242.738 20.9289H252.531ZM107.028 8.55822V25.3013H88.0316V8.58488H79.3116V50.6559H88.0316V33.9662H107.028V50.6559H115.748V8.55822H107.028ZM122.831 50.6559H131.551V23.4351H122.831V50.6559ZM210.272 50.6559H201.552V48.3898C199.218 50.4427 195.247 51.6424 191.384 51.6424C183.442 51.6424 176.734 45.2971 176.734 35.8324C176.734 26.4478 183.442 20.0224 191.384 20.0224C195.247 20.0224 199.218 21.1955 201.552 23.2751V20.9556H210.272V50.6559ZM200.694 35.8324C200.694 30.9268 196.964 27.5409 192.806 27.5409C188.325 27.5409 185.051 30.9268 185.051 35.8324C185.051 40.7914 188.325 44.124 192.806 44.124C196.991 44.124 200.694 40.7914 200.694 35.8324ZM175.017 23.5684C175.017 25.5361 174.627 27.4847 173.87 29.3027C173.112 31.1208 172.001 32.7727 170.601 34.1641C169.201 35.5555 167.538 36.6591 165.709 37.412C163.879 38.1649 161.918 38.5522 159.938 38.5519H147.327V50.6293H138.607V8.55822H159.911C161.896 8.55576 163.861 8.94233 165.695 9.69579C167.529 10.4493 169.195 11.5548 170.598 12.9491C172.001 14.3434 173.114 15.9991 173.872 17.8213C174.63 19.6435 175.019 21.5965 175.017 23.5684ZM166.324 23.5684C166.324 22.735 166.159 21.9097 165.838 21.1397C165.517 20.3697 165.047 19.6701 164.454 19.0808C163.861 18.4915 163.157 18.0241 162.382 17.7053C161.607 17.3866 160.777 17.2227 159.938 17.223H147.327V29.887H159.938C160.775 29.8902 161.605 29.7291 162.379 29.413C163.154 29.0969 163.858 28.632 164.451 28.045C165.044 27.458 165.515 26.7604 165.836 25.9922C166.158 25.224 166.323 24.4003 166.324 23.5684Z" fill="#2C0A64"/>
</svg>
